{"title":"After Earth 2013 BRRip 720p x264 AAC - PRiSTiNE [P2PDL]","uid":8977256,"size":819148672,"categoryP":"video","categoryS":"hd___movies","magnet":"?xt=urn:btih:6754d0cea899a4ce2bd239df51580786b2de4822&amp;dn=After+Earth+2013+BRRip+720p+x264+AAC+-+PRiSTiNE+%5BP2PDL%5D&amp;tr=udp%3A%2F%2Ftracker.openbittorrent.com%3A80&amp;tr=udp%3A%2F%2Fopen.demonii.com%3A1337&amp;tr=udp%3A%2F%2Ftracker.coppersurfer.tk%3A6969&amp;tr=udp%3A%2F%2Fexodus.desync.com%3A6969","seeders":7,"leechers":1,"uploader":"ValidusVyto","files":-1,"time":1380474801,"description":"_______ Visit us at our Semi Public Bittorrent Community ________\n  &lt;a href=&quot;\nhttp://p2pdl.com&quot; rel=&quot;nofollow&quot; target=&quot;_NEW&quot;&gt;\nhttp://p2pdl.com&lt;/a&gt;  _____________________________ &lt;a href=&quot; http://p2pdl.com&quot; rel=&quot;nofollow&quot; target=&quot;_NEW&quot;&gt; http://p2pdl.com&lt;/a&gt;\n\n\n\nAfter Earth 2013 BRRip 720p x264 AAC - PRiSTiNE\n\n\nGenre: Action | Adventure | Sci-Fi\nPlot: A crash landing leaves Kitai Raige and his father Cypher stranded on Earth, a\nmillennium after events forced humanity's escape. With Cypher injured, Kitai must embark\non a perilous journey to signal for help.  \nDirector: M. Night Shyamalan\nStars: Jaden Smith, David Denman, Will Smith.\nRated: PG-13 for sci-fi action violence and some disturbing images.\n\nIMDb: &lt;a href=&quot;\nhttp://www.imdb.com/title/tt1815862/&quot; rel=&quot;nofollow&quot; target=&quot;_NEW&quot;&gt;\nhttp://www.imdb.com/title/tt1815862/&lt;/a&gt;\n\nTrailer:\n\n\nFormat                         : MPEG-4\nFile size                      : 775 MiB\nDuration                       : 1h 40mn\nOverall bit rate               : 1 082 Kbps\n\nVideo\nFormat                         : AVC\nBit rate                       : 1 000 Kbps\nWidth                          : 1 280 pixels\nHeight                         : 536 pixels\nDisplay aspect ratio           : 2.40:1\nFrame rate mode                : Constant\nFrame rate                     : 23.976 fps\nBit depth                      : 10 bits\nStream size                    : 715 MiB (92%)\nWriting library                : x264 core 138 r2358\n\nAudio\nFormat                         : AAC\nBit rate mode                  : Variable\nBit rate                       : 80.0 Kbps\nChannel(s)                     : 2 channels\nChannel positions              : Front: L R\nSampling rate                  : 48.0 KHz\nStream size                    : 57.3 MiB (7%)\n\nSubtitle                       : Yes(English)\n &lt;a href=&quot;\nhttp://someimage.com/PU1pUug&quot; rel=&quot;nofollow&quot; target=&quot;_NEW&quot;&gt;\nhttp://someimage.com/PU1pUug&lt;/a&gt; &lt;a href=&quot;\nhttp://someimage.com/SjkYXpm&quot; rel=&quot;nofollow&quot; target=&quot;_NEW&quot;&gt;\nhttp://someimage.com/SjkYXpm&lt;/a&gt; &lt;a href=&quot;\nhttp://someimage.com/8Itwapq&quot; rel=&quot;nofollow&quot; target=&quot;_NEW&quot;&gt;\nhttp://someimage.com/8Itwapq&lt;/a&gt; &lt;a href=&quot;\nhttp://someimage.com/y2EaAax&quot; rel=&quot;nofollow&quot; target=&quot;_NEW&quot;&gt;\nhttp://someimage.com/y2EaAax&lt;/a&gt; &lt;a href=&quot;\nhttp://someimage.com/Yk6E5YT&quot; rel=&quot;nofollow&quot; target=&quot;_NEW&quot;&gt;\nhttp://someimage.com/Yk6E5YT&lt;/a&gt; &lt;a href=&quot;\nhttp://someimage.com/PiZysam&quot; rel=&quot;nofollow&quot; target=&quot;_NEW&quot;&gt;\nhttp://someimage.com/PiZysam&lt;/a&gt; &lt;a href=&quot;\nhttp://someimage.com/fpzdXTA&quot; rel=&quot;nofollow&quot; target=&quot;_NEW&quot;&gt;\nhttp://someimage.com/fpzdXTA&lt;/a&gt; &lt;a href=&quot;\nhttp://someimage.com/Y9Qm1kn&quot; rel=&quot;nofollow&quot; target=&quot;_NEW&quot;&gt;\nhttp://someimage.com/Y9Qm1kn&lt;/a&gt;\n\n----------------------------------------------------------------------------------------------------\n\n\nEncoded using revolutionary 10bit encoding, which enables us to provide you more crispier \nand sharper images at small sizes, just make sure you follow our instructions without a fault.\nRecommend to you to use latest version of VLC player. Install K-Lite Codec Pack or shark007 codecs\nin case of any kind of problem in playback (For non-VLC Media Player users). Alternatively, install\nCore AVC codecs, the fastest decoder that there is coupled with Community Center Codec Pack and play\non Windows Media Player Classic. Check sample to be sure.\nEnjoy!\n\nEncoder Notes:Looking For Early Access To Anything You Can Provide DVDScr, R5, DVDR, BluRay, Direct\nAudio, Music Releases and Seedboxes. We require dedicated servers, so as to do more \nand fast releases of movies.\nIf You Got anything to offer please contact us at &quot;&lt;a class=&quot;__cf_email__&quot; href=&quot;/cdn-cgi/l/email-protection&quot; data-cfemail=&quot;82f2f0e5c2eaf7f1eaace1edef&quot;&gt;[email&amp;#160;protected]&lt;/a&gt;&lt;script cf-hash='f9e31' type=&quot;text/javascript&quot;&gt;\n/* &lt;![CDATA[ */!function(){try{var t=&quot;currentScript&quot;in document?document.currentScript:function(){for(var t=document.getElementsByTagName(&quot;script&quot;),e=t.length;e--;)if(t[e].getAttribute(&quot;cf-hash&quot;))return t[e]}();if(t&amp;&amp;t.previousSibling){var e,r,n,i,c=t.previousSibling,a=c.getAttribute(&quot;data-cfemail&quot;);if(a){for(e=&quot;&quot;,r=parseInt(a.substr(0,2),16),n=2;a.length-n;n+=2)i=parseInt(a.substr(n,2),16)^r,e+=String.fromCharCode(i);e=document.createTextNode(e),c.parentNode.replaceChild(e,c)}}}catch(u){}}();/* ]]&gt; */&lt;/script&gt;&quot;.\n\nFacebook Fan Page:  \nSearch P2PDL on FB and hit like!!!\n\nFor more of our team uploads visit @                                             &lt;a href=&quot; http://thepiratebay.se/user/vitamin_x&quot; rel=&quot;nofollow&quot; target=&quot;_NEW&quot;&gt; http://thepiratebay.se/user/vitamin_x&lt;/a&gt;","torrent":{"xt":"urn:btih:6754d0cea899a4ce2bd239df51580786b2de4822","amp;dn":"After+Earth+2013+BRRip+720p+x264+AAC+-+PRiSTiNE+%5BP2PDL%5D","amp;tr":["udp%3A%2F%2Ftracker.openbittorrent.com%3A80","udp%3A%2F%2Fopen.demonii.com%3A1337","udp%3A%2F%2Ftracker.coppersurfer.tk%3A6969","udp%3A%2F%2Fexodus.desync.com%3A6969"],"infoHash":"6754d0cea899a4ce2bd239df51580786b2de4822","infoHashBuffer":{"type":"Buffer","data":[103,84,208,206,168,153,164,206,43,210,57,223,81,88,7,134,178,222,72,34]},"announce":[],"urlList":[]}}